# xmcd
#
# Track frame offsets: 
#        150
#        14354
#        26653
#        42916
#        53223
#        66073
#        80964
#        91390
#        106093
#        117873
#
# Disc length: 1760 seconds
#
# Revision: 1
# Processed by: cddbd v1.5.2PL0 Copyright (c) Steve Scherf et al.
# Submitted via: ExactAudioCopyFreeDBPlugin 1.0
#
DISCID=7d06de0a
DTITLE=Billie Jo Spears - Standing Tall
DYEAR=1980
DGENRE=Country
TTITLE0=Standing Tall
TTITLE1=Free To Be Lonesome Again
TTITLE2=Love Ain't The Question
TTITLE3=Callin' Baton Rouge
TTITLE4=I Can Wait
TTITLE5=Natural Atttraction
TTITLE6=Let Down Your Hair Sweet Lady Man
TTITLE7=You Could Know As Much About A Stranger
TTITLE8=Freedom Song
TTITLE9=Any Old Wind That Blows
EXTD=
EXTT0=
EXTT1=
EXTT2=
EXTT3=
EXTT4=
EXTT5=
EXTT6=
EXTT7=
EXTT8=
EXTT9=
PLAYORDER=
